<?xml version="1.0" standalone="no"?>
<!DOCTYPE svg PUBLIC "-//W3C//DTD SVG 20010904//EN"
 "http://www.w3.org/TR/2001/REC-SVG-20010904/DTD/svg10.dtd">
<svg version="1.0" xmlns="http://www.w3.org/2000/svg"
 width="300.000000pt" height="300.000000pt" viewBox="0 0 300.000000 300.000000"
 preserveAspectRatio="xMidYMid meet">

<g transform="translate(0.000000,300.000000) scale(0.100000,-0.100000)"
fill="#000000" stroke="none">
<path d="M0 1500 l0 -1500 1500 0 1500 0 0 1500 0 1500 -1500 0 -1500 0 0
-1500z m1610 1056 c0 -47 -4 -88 -10 -91 -5 -3 -10 -28 -10 -54 0 -39 4 -50
19 -54 10 -2 25 -1 32 4 19 12 59 11 59 -1 0 -16 -37 -30 -80 -30 -25 0 -39
-4 -35 -10 3 -5 23 -10 45 -10 38 0 58 -19 43 -43 -9 -14 -10 -177 -2 -177 13
0 39 -31 39 -45 0 -7 -8 -21 -17 -31 -16 -16 -16 -18 6 -35 13 -11 33 -19 45
-19 32 0 86 37 86 60 0 27 -34 44 -60 30 -31 -16 -43 -3 -35 39 10 56 42 84
88 78 37 -5 37 -5 37 31 0 43 28 94 65 118 32 21 116 15 145 -11 13 -11 27
-15 44 -11 35 9 86 54 86 77 0 61 64 -36 66 -100 1 -25 7 -47 12 -49 6 -2 29
6 51 18 l41 20 0 -36 c0 -40 -29 -95 -63 -119 -51 -36 -128 -10 -188 64 -27
35 -38 41 -70 41 -26 0 -47 -8 -68 -26 -43 -36 -40 -54 9 -54 78 0 107 -75 49
-132 l-30 -31 -15 22 c-24 33 -51 25 -120 -36 -53 -49 -64 -63 -64 -90 0 -20
8 -40 21 -52 l21 -19 -45 -7 c-27 -4 -60 -2 -82 5 -20 7 -39 10 -42 7 -2 -3 5
-27 16 -52 12 -26 21 -49 21 -51 0 -1 -14 5 -31 13 -39 20 -81 9 -159 -42 -30
-19 -57 -35 -60 -35 -4 0 -32 14 -63 31 -45 24 -57 36 -57 54 0 13 7 28 16 33
13 7 14 13 5 29 -13 26 -52 36 -86 23 -29 -11 -128 -14 -138 -3 -4 3 2 12 13
20 12 9 20 26 20 44 0 24 -13 42 -62 89 -68 64 -98 73 -122 39 l-15 -22 -30
31 c-30 30 -38 62 -25 97 10 24 60 46 89 39 18 -4 25 -2 25 8 0 23 -53 67 -87
74 -30 6 -37 1 -92 -57 -58 -62 -61 -64 -110 -64 -42 0 -55 5 -81 30 -29 28
-69 129 -56 142 3 3 17 -4 32 -16 15 -11 39 -21 55 -21 26 0 27 3 27 44 0 41
21 98 40 110 5 3 20 -11 33 -32 16 -25 37 -41 62 -50 35 -11 42 -10 68 9 68
48 146 30 180 -44 10 -23 19 -57 19 -75 0 -30 2 -32 25 -26 65 16 102 -29 96
-119 -1 -16 -3 -16 -25 -2 -19 13 -29 14 -45 5 -29 -15 -26 -44 7 -70 22 -18
37 -21 80 -18 45 4 52 2 52 -13 0 -10 11 -26 25 -35 35 -23 152 -15 219 14 39
18 47 19 42 6 -3 -8 1 -32 10 -52 l15 -37 18 24 c19 24 19 24 25 3 10 -30 54
-62 85 -62 25 0 26 2 23 41 -3 30 1 48 15 68 l20 26 -64 0 c-59 0 -67 3 -89
28 l-24 28 -28 -19 c-39 -28 -116 -52 -168 -52 l-45 0 16 30 c15 28 14 30 -3
30 -10 0 -24 -11 -31 -26 -14 -32 -36 -26 -36 9 -1 16 -10 34 -23 43 -28 19
-28 50 -1 64 40 22 59 49 59 86 0 26 -4 35 -13 31 -21 -8 -32 4 -56 57 -20 46
-20 49 -4 62 26 20 36 17 29 -9 -7 -28 27 -87 49 -87 9 0 18 -7 21 -15 4 -8
12 -15 19 -15 7 0 15 7 19 15 3 8 15 15 26 15 12 0 25 10 32 25 10 23 17 25
75 25 35 0 62 4 59 9 -3 4 -17 6 -31 3 -46 -8 -55 11 -48 101 3 47 12 89 19
98 8 9 14 39 14 72 0 50 -2 57 -20 57 -11 0 -20 -7 -20 -15 0 -8 -9 -15 -20
-15 -11 0 -20 7 -20 15 0 8 -6 15 -14 15 -8 0 -16 -7 -20 -15 -3 -8 -12 -15
-21 -15 -8 0 -15 7 -15 15 0 8 -9 15 -20 15 -18 0 -20 -7 -20 -59 0 -40 5 -63
15 -71 8 -7 15 -23 15 -35 0 -25 28 -41 44 -25 14 14 39 -60 25 -77 -6 -6 -8
-21 -5 -31 7 -22 -12 -72 -27 -72 -6 0 -19 -7 -29 -16 -16 -16 -18 -16 -24 0
-3 9 -12 16 -19 16 -7 0 -21 12 -30 27 -14 20 -15 30 -7 44 9 14 8 21 -3 32
-20 20 2 84 28 79 21 -4 23 24 2 44 -11 11 -15 37 -15 88 0 40 3 76 7 79 3 4
57 7 120 7 l113 0 0 -84z m-96 -52 c13 -35 7 -54 -19 -54 -21 0 -25 5 -25 28
0 16 3 32 7 35 11 12 31 7 37 -9z m-985 -554 c31 -60 85 -126 134 -161 26 -19
49 -49 69 -91 l29 -63 -27 -22 -28 -22 45 -49 c24 -28 48 -50 52 -51 4 -1 56
32 115 73 135 93 154 102 226 111 l59 7 -37 -51 -38 -51 21 -34 c12 -18 21
-36 21 -40 0 -3 -28 -6 -61 -6 l-61 0 6 -45 c8 -52 3 -54 -60 -26 l-41 19 -12
-47 c-20 -77 -25 -81 -66 -41 -22 21 -39 31 -43 24 -8 -11 -101 -134 -112
-146 -3 -5 -6 15 -5 43 l0 52 -45 11 c-121 32 -195 99 -215 196 l-7 35 22 -28
c19 -24 87 -67 106 -67 4 0 -10 15 -32 34 -43 36 -92 118 -104 172 -8 36 4 48
15 14 7 -21 91 -100 107 -100 5 0 -7 19 -27 42 -54 64 -87 142 -92 218 -4 64
-4 65 10 29 19 -49 50 -99 81 -128 33 -31 33 -20 1 27 -50 73 -78 208 -58 282
6 21 8 18 18 -25 6 -28 22 -70 34 -95z m1991 -2 c-9 -62 -36 -130 -71 -181
l-22 -32 37 35 c21 19 51 60 67 90 l30 55 -5 -57 c-5 -68 -33 -134 -87 -205
-22 -29 -37 -53 -34 -53 15 0 79 57 101 89 21 32 24 33 24 13 0 -42 -49 -129
-100 -176 -27 -25 -45 -46 -39 -46 21 0 75 33 96 58 21 24 23 25 23 7 -1 -38
-37 -101 -81 -139 -30 -25 -67 -44 -118 -59 l-73 -22 6 -49 5 -49 -37 50 c-20
27 -49 64 -64 81 l-27 32 -30 -30 c-16 -17 -34 -30 -39 -30 -11 0 -32 68 -32
104 l0 26 -37 -19 c-21 -10 -49 -22 -62 -26 -24 -7 -24 -6 -18 38 l6 46 -59 3
-59 3 18 40 18 40 -35 48 -35 49 59 -7 c61 -7 161 -59 281 -147 29 -21 56 -38
61 -38 5 0 28 23 52 51 l44 52 -25 21 -25 22 26 56 c17 39 45 75 91 117 76 69
122 136 139 201 20 74 23 77 31 35 4 -22 4 -66 -1 -97z m-1840 -107 c5 -19 8
-36 6 -38 -2 -2 -20 11 -40 30 -43 41 -45 62 -14 167 l23 75 8 -100 c4 -55 12
-115 17 -134z m1684 150 c25 -85 21 -120 -16 -158 -18 -18 -35 -33 -38 -33 -4
0 -1 28 6 63 8 34 14 93 14 132 0 78 10 77 34 -4z m-1594 -81 c4 0 11 11 14
25 10 38 26 30 26 -13 l0 -37 78 3 c62 2 73 1 57 -9 -11 -6 -26 -19 -34 -28
-9 -11 -15 -12 -18 -4 -2 7 -11 9 -19 6 -12 -4 -12 -8 1 -26 8 -12 15 -33 16
-47 1 -23 2 -22 10 6 5 18 25 46 45 64 29 25 43 30 72 28 24 -2 38 -9 40 -19
2 -12 -3 -15 -21 -12 -16 3 -34 -4 -55 -22 -44 -37 -41 -49 13 -43 54 7 50 -7
-12 -34 -31 -14 -43 -24 -39 -34 3 -8 -2 -18 -11 -21 -9 -4 -19 -1 -21 5 -6
18 -22 14 -59 -14 -26 -19 -31 -29 -23 -39 7 -9 6 -16 -4 -25 -13 -10 -19 -6
-36 22 -60 97 -84 250 -50 308 l15 25 3 -32 c2 -18 7 -33 12 -33z m1486 25
c30 -72 11 -189 -46 -278 -30 -48 -55 -55 -45 -14 4 17 -2 27 -30 45 -39 25
-52 27 -57 10 -2 -6 -12 -9 -21 -5 -9 3 -14 12 -11 20 3 9 -10 20 -36 32 -63
28 -69 44 -15 37 54 -6 57 6 14 42 -33 28 -64 34 -73 14 -3 -7 -4 -2 -3 12 2
21 8 25 39 28 30 3 44 -3 77 -34 23 -20 41 -43 41 -50 0 -8 4 -14 9 -14 5 0 7
9 4 20 -3 12 1 22 11 26 26 10 19 27 -9 20 -14 -4 -25 -2 -25 3 0 6 -12 17
-27 26 -27 15 -25 15 46 13 70 -3 74 -2 83 21 5 14 6 32 3 40 -3 11 0 9 10 -3
8 -11 15 -23 15 -28 0 -4 5 -8 10 -8 6 0 10 14 10 30 0 39 8 38 26 -5z m-1227
-227 c5 -13 7 -26 5 -30 -3 -4 -54 -41 -115 -83 l-111 -76 -29 33 c-15 18 -28
36 -29 40 -1 15 23 20 46 8 19 -11 27 -10 49 4 22 14 24 20 14 32 -10 12 -9
18 5 32 14 14 20 15 37 4 17 -11 25 -11 45 3 13 8 24 22 24 29 0 31 48 33 59
4z m980 13 c7 -5 11 -13 8 -18 -3 -5 8 -17 24 -27 28 -16 32 -17 48 -2 16 15
19 15 36 -4 14 -15 15 -23 6 -34 -10 -11 -6 -18 19 -36 30 -21 32 -21 44 -4 8
10 20 15 30 11 22 -9 20 -16 -13 -56 l-28 -34 -55 40 c-30 23 -81 58 -114 78
-32 21 -60 39 -62 40 -1 1 3 14 9 29 13 27 25 32 48 17z m-306 -51 c14 -11 38
-20 54 -21 19 0 36 -10 52 -31 l24 -30 -26 -54 c-32 -65 -32 -64 -7 -64 17 0
20 -7 20 -45 l0 -45 -325 0 -325 0 0 23 c0 38 12 67 26 67 18 0 18 1 -12 63
l-27 54 24 32 c23 31 23 31 114 31 82 0 96 -3 129 -25 20 -14 40 -25 44 -25 4
0 41 21 82 45 82 50 115 55 153 25z m-556 -207 c3 -9 2 -33 -4 -54 -12 -44 -2
-59 37 -59 14 0 31 -4 39 -9 11 -7 6 -12 -20 -19 l-34 -9 39 -19 c22 -10 41
-25 44 -31 6 -19 -38 -16 -60 4 -30 27 -22 -6 9 -39 l27 -28 -32 0 c-21 0 -32
5 -32 14 0 7 -6 25 -13 39 -10 20 -17 23 -25 15 -17 -17 -26 15 -12 42 19 35
5 34 -47 -3 -26 -20 -74 -47 -106 -61 -58 -25 -78 -49 -59 -68 7 -7 25 -7 60
2 62 14 82 6 114 -53 l24 -43 -23 -17 c-48 -37 -14 -127 48 -127 15 0 40 -10
54 -23 l27 -23 -18 -37 c-20 -42 -34 -48 -35 -14 l0 22 -16 -22 c-19 -29 -29
-29 -36 -1 l-6 21 -20 -24 c-18 -21 -20 -21 -21 -6 0 19 -50 67 -82 79 -18 7
-18 9 -3 32 24 36 16 68 -22 86 -18 8 -35 23 -39 33 -3 9 -15 22 -26 28 -19
10 -20 9 -13 -7 29 -67 8 -136 -54 -180 -48 -35 -51 -44 -11 -44 54 0 134 -22
225 -62 137 -60 151 -64 170 -44 36 35 135 0 135 -48 0 -32 18 -38 140 -43
111 -5 187 6 182 26 -5 22 20 53 53 67 45 18 84 18 91 -1 10 -25 43 -17 140
30 89 44 195 74 259 75 l30 0 -53 48 c-47 41 -55 53 -59 93 -3 26 0 55 6 68
10 17 9 21 -4 21 -8 0 -20 -10 -26 -22 -6 -13 -25 -30 -42 -38 -26 -12 -32
-20 -31 -45 1 -16 5 -40 9 -52 5 -16 3 -23 -6 -23 -21 -1 -79 -57 -79 -77 0
-14 -4 -13 -25 7 l-25 23 0 -21 c0 -28 -27 -29 -36 0 -6 19 -7 19 -16 5 -13
-25 -22 -21 -36 16 -12 30 -11 34 13 55 15 12 38 22 53 22 46 0 72 26 72 70 0
29 -6 43 -25 58 -15 12 -21 23 -15 27 6 3 17 21 24 40 20 48 44 57 106 43 37
-8 53 -9 62 0 19 19 0 42 -59 68 -32 14 -80 41 -106 61 -52 37 -66 38 -47 3
14 -26 5 -54 -14 -47 -9 4 -19 -5 -26 -23 -17 -40 -35 -54 -56 -42 -16 9 -15
12 9 35 35 31 36 53 2 31 -30 -19 -64 -12 -46 10 7 8 23 17 36 20 14 4 25 12
25 18 0 6 -3 8 -6 5 -4 -3 -16 -1 -27 4 -16 9 -17 13 -6 20 8 5 25 9 40 9 38
0 48 15 36 59 -14 51 -5 71 33 71 30 0 30 0 30 -54 l0 -55 57 20 c31 10 57 18
57 17 1 -2 10 -29 20 -60 11 -32 24 -58 31 -58 6 0 24 14 40 30 16 16 31 30
34 30 10 0 97 -113 115 -147 9 -18 16 -44 16 -58 0 -36 26 -82 51 -90 38 -12
42 9 15 73 -44 103 -30 146 50 159 22 3 45 10 52 16 8 7 12 5 12 -8 0 -16 2
-16 24 -1 l25 16 -14 -48 c-18 -57 -39 -75 -82 -68 -18 2 -35 1 -38 -4 -3 -5
6 -36 20 -69 19 -47 23 -66 15 -85 -12 -33 -55 -44 -91 -24 -26 16 -28 15 -33
-8 -13 -50 27 -144 61 -144 7 0 13 -4 13 -10 0 -5 17 -10 39 -10 46 0 51 -10
51 -119 l0 -74 -74 6 -74 5 -35 -36 c-19 -21 -36 -43 -39 -51 -3 -11 -8 -10
-22 4 -15 15 -19 16 -27 4 -8 -12 -11 -11 -20 4 -8 14 -14 16 -25 6 -12 -10
-14 -4 -14 34 l0 45 -37 -10 c-21 -5 -83 -30 -138 -56 -65 -30 -117 -47 -152
-50 -52 -4 -53 -4 -53 22 0 16 -5 26 -15 26 -11 0 -15 -11 -15 -40 0 -31 -5
-43 -24 -55 -36 -24 -191 -38 -280 -26 -107 15 -124 25 -128 74 -3 44 -24 62
-30 25 -5 -38 -88 -30 -185 17 -64 30 -176 75 -189 75 -2 0 -2 -17 -1 -37 2
-32 -1 -38 -17 -38 -11 0 -21 -6 -24 -13 -6 -18 -22 -15 -22 5 0 14 -4 12 -25
-7 -18 -17 -25 -19 -25 -9 0 8 -16 31 -36 50 -34 32 -39 34 -107 34 l-72 0 -3
93 -3 92 45 0 c62 0 111 46 121 113 10 68 3 81 -34 60 -45 -27 -85 -9 -89 39
-2 22 5 52 17 77 30 57 28 75 -6 68 -39 -7 -79 17 -92 54 -15 44 -15 67 1 51
16 -16 28 -15 28 3 0 14 3 14 23 1 12 -7 38 -17 58 -20 69 -12 81 -55 40 -146
-22 -47 -27 -68 -19 -77 15 -19 26 -16 53 12 18 17 25 35 25 63 0 39 41 112
104 187 l25 30 40 -39 40 -39 21 47 c11 26 20 54 20 61 0 24 18 26 69 5 l51
-20 0 55 c0 55 0 55 30 55 19 0 33 -6 37 -17z m281 -210 l3 -103 -116 0 -115
0 0 -29 c0 -16 4 -41 10 -55 9 -26 11 -26 115 -26 l105 0 0 -130 0 -129 32
-17 c29 -15 34 -15 65 0 l33 16 0 130 0 130 104 0 104 0 11 31 c6 18 11 43 11
55 0 24 -1 24 -115 24 l-115 0 0 105 0 105 85 0 c47 0 85 -4 85 -9 0 -5 7 -17
17 -26 17 -18 17 -18 -27 -44 -12 -8 -12 -12 -1 -25 7 -9 22 -16 32 -16 11 0
19 -4 19 -10 0 -5 -7 -10 -16 -10 -27 0 2 -28 37 -35 36 -8 38 -34 9 -127 -38
-125 -140 -248 -252 -308 l-58 -31 -48 26 c-112 61 -205 171 -248 294 -13 36
-24 83 -24 104 0 32 3 37 23 37 13 0 32 9 41 19 17 18 17 20 -1 30 -17 10 -16
10 4 11 12 0 27 9 33 20 8 14 8 20 0 20 -6 0 -17 5 -24 12 -10 10 -10 17 3 40
16 28 18 28 96 26 l80 -3 3 -102z"/>
<path d="M1390 2368 c0 -7 7 -22 15 -32 19 -25 19 -36 -1 -36 -29 0 -8 -25 24
-28 23 -2 32 1 32 12 0 8 -5 16 -11 18 -7 2 -3 18 11 41 19 31 20 37 6 37 -9
0 -16 -8 -16 -20 0 -13 -7 -20 -20 -20 -13 0 -20 7 -20 20 0 11 -4 20 -10 20
-5 0 -10 -6 -10 -12z"/>
<path d="M763 2322 c-7 -17 -7 -59 -1 -97 3 -18 -3 -20 -54 -20 l-56 0 14 -27
c29 -55 95 -75 142 -42 18 12 50 63 80 125 1 4 -11 9 -28 13 -17 3 -45 19 -61
36 -26 25 -31 27 -36 12z"/>
<path d="M2192 2311 c-12 -16 -37 -34 -56 -41 l-34 -11 32 -57 c40 -72 89
-101 138 -81 26 11 68 60 68 81 0 3 -16 1 -35 -5 -25 -7 -42 -7 -60 1 -22 10
-24 14 -14 36 12 25 5 91 -10 100 -4 3 -17 -8 -29 -23z"/>
<path d="M1535 2179 c-22 -10 -52 -19 -68 -19 -20 0 -30 -7 -37 -26 -14 -35
-14 -34 26 -34 41 0 97 29 90 47 -3 6 2 17 10 24 21 17 47 -18 32 -44 -14 -27
-3 -32 20 -9 20 20 20 20 -1 51 -25 36 -21 35 -72 10z"/>
<path d="M1445 2081 c-6 -10 45 -55 53 -46 7 6 -26 55 -38 55 -5 0 -11 -4 -15
-9z"/>
<path d="M1510 2080 c0 -5 10 -20 22 -32 27 -27 39 -6 12 23 -19 21 -34 25
-34 9z"/>
<path d="M1380 2073 c1 -13 51 -45 58 -38 4 4 -4 15 -17 26 -24 20 -41 25 -41
12z"/>
<path d="M1570 2072 c0 -13 34 -42 49 -42 8 0 6 8 -6 25 -17 24 -43 34 -43 17z"/>
<path d="M1642 2048 c19 -29 36 -34 44 -13 8 19 -11 35 -40 35 -17 0 -17 -2
-4 -22z"/>
<path d="M1330 2046 c0 -15 37 -32 47 -22 9 8 -17 36 -33 36 -8 0 -14 -6 -14
-14z"/>
<path d="M1196 1918 c11 -21 14 -45 11 -71 l-5 -39 36 6 c20 3 52 9 69 12 59
11 78 0 107 -67 15 -34 28 -60 30 -58 4 4 -7 82 -15 107 -3 8 15 19 46 30 42
15 110 52 95 52 -3 0 -29 -9 -58 -20 -84 -32 -199 -25 -224 14 -4 6 -5 21 -2
33 5 18 2 21 -14 16 -11 -2 -36 0 -56 5 l-36 10 16 -30z"/>
<path d="M1250 1561 c0 -5 11 -11 25 -13 l25 -3 -26 -39 c-22 -31 -25 -44 -18
-65 13 -35 57 -50 91 -31 46 26 50 44 20 89 -15 22 -27 43 -27 46 0 3 27 5 60
5 45 0 60 -4 60 -14 0 -8 6 -16 13 -19 9 -3 9 -7 -2 -21 -12 -14 -11 -19 4
-36 17 -19 20 -19 36 -4 15 13 16 20 6 36 -9 16 -9 22 1 25 6 3 12 11 12 19 0
10 15 14 61 14 l60 0 -28 -50 -28 -50 22 -21 c29 -29 77 -29 106 0 l22 21 -28
50 -28 50 25 0 c14 0 26 5 26 10 0 6 -88 10 -245 10 -145 0 -245 -4 -245 -9z
m93 -50 c25 -42 22 -47 -27 -43 l-44 4 20 34 c11 19 23 34 27 34 4 0 14 -13
24 -29z m367 -33 c0 -5 -18 -8 -40 -8 -46 0 -46 1 -23 42 l18 29 22 -28 c13
-15 23 -31 23 -35z"/>
<path d="M763 829 c-41 -15 -25 -114 19 -123 13 -2 52 -9 86 -15 36 -6 107
-30 165 -57 59 -28 120 -49 149 -52 l48 -5 0 65 0 65 -51 6 c-28 4 -95 26
-148 51 -137 63 -220 83 -268 65z m71 -25 c9 -8 16 -23 16 -31 0 -23 -30 -53
-52 -53 -15 0 -18 8 -18 50 0 43 3 50 19 50 11 0 27 -7 35 -16z m54 -39 c-1
-30 -6 -45 -14 -45 -10 0 -13 13 -12 45 2 29 7 45 15 45 9 0 13 -14 11 -45z
m72 13 c0 -6 3 -9 6 -5 4 3 21 -1 38 -10 24 -13 27 -18 14 -21 -13 -2 -18 -13
-18 -38 0 -21 -4 -33 -10 -29 -5 3 -10 24 -10 45 0 30 -5 40 -20 45 -41 13
-55 -23 -19 -48 11 -8 16 -17 11 -21 -5 -3 -18 2 -30 10 -22 15 -27 38 -16 68
7 18 54 22 54 4z m94 -83 c1 -19 6 -35 11 -35 6 1 9 17 9 36 -1 22 2 32 8 26
5 -5 8 -25 6 -43 -2 -26 -8 -34 -23 -34 -17 0 -20 8 -23 50 -2 27 0 46 4 42 4
-4 8 -23 8 -42z m86 -7 c11 -12 20 -16 20 -10 0 7 7 12 15 12 11 0 15 -12 15
-45 0 -25 -4 -45 -10 -45 -5 0 -10 12 -10 28 -1 25 -1 25 -12 7 -11 -19 -11
-19 -19 0 -7 18 -8 18 -8 -3 -1 -13 -5 -20 -11 -17 -10 6 -15 95 -5 95 2 0 13
-10 25 -22z"/>
<path d="M807 794 c-4 -4 -7 -18 -7 -31 0 -28 23 -27 28 1 4 20 -11 40 -21 30z"/>
<path d="M2090 819 c-19 -6 -79 -31 -132 -55 -54 -25 -119 -49 -145 -52 l-48
-7 0 -65 0 -65 35 3 c19 2 78 23 130 47 110 50 189 75 240 75 54 0 71 17 73
75 l2 50 -60 2 c-33 1 -76 -3 -95 -8z m70 -26 c1 -17 1 -17 14 0 23 30 36 20
36 -28 0 -48 -20 -64 -21 -17 l0 27 -11 -25 c-10 -24 -10 -24 -18 -5 -8 19 -9
19 -9 -2 -2 -44 -21 -23 -21 22 0 33 4 45 15 45 8 0 15 -8 15 -17z m-52 -35
c-3 -38 -6 -43 -28 -43 -22 0 -25 5 -28 38 -2 21 1 37 7 37 6 0 11 -16 11 -35
0 -19 5 -35 10 -35 6 0 10 18 10 40 0 22 5 40 11 40 6 0 9 -17 7 -42z m-68 12
c0 -5 -4 -10 -10 -10 -5 0 -10 -18 -10 -40 0 -22 -4 -40 -10 -40 -5 0 -10 16
-10 36 0 21 -4 33 -10 29 -5 -3 -10 -2 -10 3 0 5 10 14 23 20 29 14 37 14 37
2z m-70 -26 c0 -3 -7 -12 -15 -21 -21 -21 -15 -49 10 -45 16 3 17 2 6 -12 -13
-15 -15 -15 -32 0 -23 21 -24 33 -3 62 14 20 34 30 34 16z m-50 -96 c0 -21
-16 -24 -22 -6 -3 8 -9 4 -17 -10 -19 -36 -29 -25 -17 21 18 67 28 77 42 42 7
-17 13 -38 14 -47z m-70 23 c0 -10 -7 -24 -15 -31 -8 -7 -15 -19 -15 -26 0 -8
-4 -14 -10 -14 -11 0 -14 73 -3 83 14 15 43 7 43 -12z"/>
<path d="M598 813 c-27 -4 -28 -6 -28 -69 l0 -64 35 0 c43 0 55 20 55 89 0 55
2 54 -62 44z"/>
<path d="M2326 786 c-3 -13 0 -42 7 -62 10 -32 18 -39 47 -45 19 -4 39 -4 43
0 4 5 7 35 5 67 l-3 59 -46 3 c-42 3 -47 1 -53 -22z"/>
<path d="M1312 591 l3 -66 40 -13 c47 -16 253 -11 298 7 25 10 27 14 27 74 l0
64 -62 -13 c-80 -17 -166 -17 -246 0 l-63 13 3 -66z m52 23 c9 -8 16 -11 16
-5 0 6 7 11 15 11 11 0 15 -12 15 -45 0 -45 -19 -66 -21 -22 0 12 -3 16 -6 10
-7 -18 -21 -16 -26 5 -3 12 -5 11 -6 -6 -1 -14 -5 -20 -12 -17 -13 9 -8 85 6
85 2 0 11 -7 19 -16z m288 -29 c-4 -46 -21 -63 -23 -22 -1 21 -1 21 -9 -3 l-7
-25 -12 25 -11 25 2 -25 c2 -14 -2 -26 -7 -27 -9 -3 -8 77 2 87 2 3 11 -4 19
-14 11 -16 14 -17 14 -4 0 14 11 24 30 27 3 1 4 -19 2 -44z m-184 18 c-21 -5
-23 -19 -5 -27 10 -5 10 -7 0 -12 -19 -8 -16 -32 5 -37 10 -3 6 -5 -10 -6 -27
-1 -28 1 -28 44 0 43 1 45 28 44 16 -1 20 -3 10 -6z m48 -28 c-1 -47 18 -49
22 -2 3 39 22 52 22 15 0 -46 -12 -68 -35 -68 -27 0 -32 10 -27 56 5 45 20 44
18 -1z"/>
<path d="M1311 1306 c-8 -10 -8 -21 -1 -40 13 -36 13 -36 -10 -36 -11 0 -20
-4 -20 -10 0 -5 9 -10 19 -10 15 0 18 -5 14 -21 -4 -16 -2 -20 8 -17 8 3 13
13 13 22 -1 10 6 16 17 16 11 0 19 5 19 10 0 6 -8 10 -18 10 -14 0 -17 7 -14
39 4 42 -9 59 -27 37z"/>
</g>
</svg>
